<svg width="228" height="29" viewBox="0 0 228 29" fill="none" xmlns="http://www.w3.org/2000/svg">
<path d="M34.72 -1.90735e-06H0.32V6.04H13.92V28H21.12V6.04H34.72V-1.90735e-06ZM66.6872 5.72V-1.90735e-06H37.0872V28H66.6872V22.28H44.2872V16.6H66.6872V11.4H44.2872V5.72H66.6872ZM89.6337 -1.90735e-06H69.3138V28H89.6337C96.8738 28 103.234 23.52 103.234 14C103.234 4.48 96.8738 -1.90735e-06 89.6337 -1.90735e-06ZM86.9138 21.96H76.5138V6.04H86.9138C92.3538 6.04 96.0338 7.2 96.0338 14C96.0338 20.8 92.3538 21.96 86.9138 21.96ZM126.157 -1.90735e-06H105.837V28H126.157C133.397 28 139.757 23.52 139.757 14C139.757 4.48 133.397 -1.90735e-06 126.157 -1.90735e-06ZM123.437 21.96H113.037V6.04H123.437C128.877 6.04 132.557 7.2 132.557 14C132.557 20.8 128.877 21.96 123.437 21.96ZM149.561 -1.90735e-06H142.361V28H149.561V-1.90735e-06ZM181.631 -1.90735e-06V21.04L162.511 -1.90735e-06H152.751V28H159.951V7L179.031 28H188.831V-1.90735e-06H181.631ZM227.248 13.96V-1.90735e-06H220.048V13.96C220.048 17.84 218.968 22.36 209.648 22.36C200.328 22.36 199.248 17.88 199.248 13.96V-1.90735e-06H192.048V13.96C192.048 23.72 197.328 28.4 209.648 28.4C221.928 28.4 227.248 23.68 227.248 13.96Z" fill="white"/>
</svg>
