<svg width="727" height="92" viewBox="0 0 727 92" fill="none" xmlns="http://www.w3.org/2000/svg">
<path d="M110.304 0.399994H0.224V19.728H43.744V90H66.784V19.728H110.304V0.399994ZM212.599 18.704V0.399994H117.879V90H212.599V71.696H140.919V53.52H212.599V36.88H140.919V18.704H212.599ZM286.028 0.399994H221.004V90H286.028C309.196 90 329.548 75.664 329.548 45.2C329.548 14.736 309.196 0.399994 286.028 0.399994ZM277.324 70.672H244.044V19.728H277.324C294.732 19.728 306.508 23.44 306.508 45.2C306.508 66.96 294.732 70.672 277.324 70.672ZM402.903 0.399994H337.879V90H402.903C426.071 90 446.423 75.664 446.423 45.2C446.423 14.736 426.071 0.399994 402.903 0.399994ZM394.199 70.672H360.919V19.728H394.199C411.607 19.728 423.383 23.44 423.383 45.2C423.383 66.96 411.607 70.672 394.199 70.672ZM477.794 0.399994H454.754V90H477.794V0.399994ZM580.42 0.399994V67.728L519.236 0.399994H488.004V90H511.044V22.8L572.1 90H603.46V0.399994H580.42ZM726.394 45.072V0.399994H703.354V45.072C703.354 57.488 699.898 71.952 670.074 71.952C640.25 71.952 636.794 57.616 636.794 45.072V0.399994H613.754V45.072C613.754 76.304 630.65 91.28 670.074 91.28C709.37 91.28 726.394 76.176 726.394 45.072Z" fill="#985C23"/>
</svg>
